# xmcd
#
# Track frame offsets: 
#        150
#        31258
#        59366
#        79317
#        98037
#        120459
#        136517
#        159088
#        182208
#        215334
#        235911
#        264662
#        295954
#        327455
#
# Disc length: 4776 seconds
#
# Revision: 0
# Processed by: cddbd v1.5.2PL0 Copyright (c) Steve Scherf et al.
# Submitted via: ExactAudioCopy v0.95b4
#
DISCID=bf12a60e
DTITLE=Various Artist - Essential Lounge Vol.2
DYEAR=2006
DGENRE=Easy Listening
TTITLE0=Joseph Malik - Aquarius Song
TTITLE1=Ilya - Soleil Soleil
TTITLE2=Moby - Whispering Wind
TTITLE3=Jazznova - No Use
TTITLE4=Marc Moulin - Bottle
TTITLE5=Thievery Corporation - Shadows of Ourselves
TTITLE6=Tosca Feat. Earl Zinger - Wonderful
TTITLE7=Moloko - Fun For Me
TTITLE8=Gus Gus - Believe
TTITLE9=Tranquility Bass - Cantamilla
TTITLE10=Faze Action - Moving Cities
TTITLE11=St Germain - Rose Rouge
TTITLE12=Buscemi - Viaje Feliz
TTITLE13=Trüby Trio - A Festa
EXTD=
EXTT0=
EXTT1=
EXTT2=
EXTT3=
EXTT4=
EXTT5=
EXTT6=
EXTT7=
EXTT8=
EXTT9=
EXTT10=
EXTT11=
EXTT12=
EXTT13=
PLAYORDER=
